<svg width="194" height="275" viewBox="0 0 194 275" fill="none" xmlns="http://www.w3.org/2000/svg">
<circle cx="97" cy="97" r="97" fill="white" fill-opacity="0.2"/>
<g clip-path="url(#clip0_76_828)">
<path d="M96.6 158.7C130.897 158.7 158.7 130.897 158.7 96.6C158.7 62.3031 130.897 34.5 96.6 34.5C62.3031 34.5 34.5 62.3031 34.5 96.6C34.5 130.897 62.3031 158.7 96.6 158.7Z" stroke="white" stroke-width="4" stroke-miterlimit="10"/>
<path d="M129 68.8L90.1002 124.4L64.2002 102.4" stroke="white" stroke-width="6" stroke-miterlimit="10" stroke-linecap="round"/>
<path d="M96.6002 170.5C137.414 170.5 170.5 137.414 170.5 96.6C170.5 55.7862 137.414 22.7 96.6002 22.7C55.7864 22.7 22.7002 55.7862 22.7002 96.6C22.7002 137.414 55.7864 170.5 96.6002 170.5Z" stroke="white" stroke-width="4" stroke-miterlimit="10" stroke-dasharray="12.22 12.22"/>
</g>
<path d="M18.1953 226.789C18.1953 228.398 17.6992 229.703 16.707 230.703C15.7148 231.703 14.0352 232.211 11.668 232.227H9.34766V236.797H11.6445V239H4.47266V236.797H6.67578V223.543H4.47266V221.34H11.0469C12.8203 221.34 14.2266 221.531 15.2656 221.914C16.3125 222.297 17.0625 222.883 17.5156 223.672C17.9688 224.453 18.1953 225.492 18.1953 226.789ZM15.4883 226.73C15.4883 225.629 15.1641 224.824 14.5156 224.316C13.8672 223.801 12.7578 223.543 11.1875 223.543H9.34766V230.094H11C12.0859 230.094 12.9531 229.996 13.6016 229.801C14.25 229.598 14.7266 229.254 15.0312 228.77C15.3359 228.277 15.4883 227.598 15.4883 226.73ZM29.5273 231.031V236.844H31.5898V239H27.3945V237.488C26.2227 238.637 24.918 239.211 23.4805 239.211C22.7227 239.211 22.0273 239.035 21.3945 238.684C20.7695 238.332 20.2656 237.863 19.8828 237.277C19.5078 236.684 19.3203 236.027 19.3203 235.309C19.3203 234.535 19.5273 233.848 19.9414 233.246C20.3633 232.637 20.9297 232.168 21.6406 231.84C22.3516 231.512 23.0664 231.348 23.7852 231.348C24.9883 231.348 26.1094 231.699 27.1484 232.402V231.078C27.1484 230.117 26.9453 229.43 26.5391 229.016C26.1328 228.602 25.4648 228.395 24.5352 228.395C23.8789 228.395 23.3281 228.516 22.8828 228.758C22.4453 228.992 22.082 229.352 21.793 229.836L19.4727 229.262C19.9961 228.285 20.7031 227.559 21.5938 227.082C22.4844 226.598 23.543 226.355 24.7695 226.355C26.418 226.355 27.6211 226.73 28.3789 227.48C29.1445 228.23 29.5273 229.414 29.5273 231.031ZM23.8086 237.348C24.9961 237.348 26.1094 236.852 27.1484 235.859V234.418C26.0938 233.598 25.0391 233.188 23.9844 233.188C23.3438 233.188 22.7891 233.391 22.3203 233.797C21.8594 234.195 21.6289 234.699 21.6289 235.309C21.6289 235.895 21.832 236.383 22.2383 236.773C22.6445 237.156 23.168 237.348 23.8086 237.348ZM40.4258 227.211V226.684H42.5352V230.773H40.4258V230.023C39.7227 229.016 38.7617 228.512 37.543 228.512C36.9023 228.512 36.3789 228.652 35.9727 228.934C35.5664 229.215 35.3633 229.578 35.3633 230.023C35.3633 230.422 35.5156 230.734 35.8203 230.961C36.1328 231.188 36.8281 231.387 37.9062 231.559L39.5352 231.875C41.9648 232.32 43.1797 233.512 43.1797 235.449C43.1797 236.582 42.7383 237.492 41.8555 238.18C40.9805 238.867 39.8164 239.211 38.3633 239.211C37.7852 239.211 37.2148 239.129 36.6523 238.965C36.0977 238.793 35.6328 238.582 35.2578 238.332V239H33.1016V234.781H35.2578V235.203C35.375 235.797 35.7031 236.273 36.2422 236.633C36.7891 236.992 37.4219 237.172 38.1406 237.172C38.9297 237.172 39.5508 237.035 40.0039 236.762C40.457 236.48 40.6836 236.066 40.6836 235.52C40.6836 235.121 40.5039 234.824 40.1445 234.629C39.7852 234.426 39.0625 234.219 37.9766 234.008L36.7227 233.738C35.4805 233.488 34.5703 233.059 33.9922 232.449C33.4141 231.84 33.125 231.062 33.125 230.117C33.125 229.352 33.3359 228.699 33.7578 228.16C34.1875 227.613 34.7344 227.203 35.3984 226.93C36.0625 226.656 36.7461 226.52 37.4492 226.52C38.6289 226.52 39.6211 226.75 40.4258 227.211ZM52.4727 227.211V226.684H54.582V230.773H52.4727V230.023C51.7695 229.016 50.8086 228.512 49.5898 228.512C48.9492 228.512 48.4258 228.652 48.0195 228.934C47.6133 229.215 47.4102 229.578 47.4102 230.023C47.4102 230.422 47.5625 230.734 47.8672 230.961C48.1797 231.188 48.875 231.387 49.9531 231.559L51.582 231.875C54.0117 232.32 55.2266 233.512 55.2266 235.449C55.2266 236.582 54.7852 237.492 53.9023 238.18C53.0273 238.867 51.8633 239.211 50.4102 239.211C49.832 239.211 49.2617 239.129 48.6992 238.965C48.1445 238.793 47.6797 238.582 47.3047 238.332V239H45.1484V234.781H47.3047V235.203C47.4219 235.797 47.75 236.273 48.2891 236.633C48.8359 236.992 49.4688 237.172 50.1875 237.172C50.9766 237.172 51.5977 237.035 52.0508 236.762C52.5039 236.48 52.7305 236.066 52.7305 235.52C52.7305 235.121 52.5508 234.824 52.1914 234.629C51.832 234.426 51.1094 234.219 50.0234 234.008L48.7695 233.738C47.5273 233.488 46.6172 233.059 46.0391 232.449C45.4609 231.84 45.1719 231.062 45.1719 230.117C45.1719 229.352 45.3828 228.699 45.8047 228.16C46.2344 227.613 46.7812 227.203 47.4453 226.93C48.1094 226.656 48.793 226.52 49.4961 226.52C50.6758 226.52 51.668 226.75 52.4727 227.211ZM60.1016 228.852L62.4336 236.27L64.7773 228.852H63.4648V226.684H69.3828V228.852H68.0234L70.4023 236.27L72.7695 228.852H71.0703V226.684H76.6133V228.852H74.832L71.5508 239.211H69.2656L66.4414 230.316L63.582 239.211H61.3203L58.0156 228.852H56.5273V226.684H61.707V228.852H60.1016ZM90.8516 232.859C90.8516 234.055 90.5664 235.148 89.9961 236.141C89.4258 237.133 88.6484 237.918 87.6641 238.496C86.6797 239.074 85.5898 239.363 84.3945 239.363C83.1602 239.363 82.0469 239.074 81.0547 238.496C80.0625 237.918 79.2891 237.133 78.7344 236.141C78.1875 235.148 77.9141 234.055 77.9141 232.859C77.9141 231.609 78.1875 230.492 78.7344 229.508C79.2891 228.523 80.0586 227.754 81.043 227.199C82.0273 226.637 83.1445 226.355 84.3945 226.355C85.6055 226.355 86.7031 226.652 87.6875 227.246C88.6719 227.832 89.4453 228.621 90.0078 229.613C90.5703 230.605 90.8516 231.688 90.8516 232.859ZM84.3945 237.008C85.1133 237.008 85.7734 236.82 86.375 236.445C86.9766 236.07 87.4453 235.566 87.7812 234.934C88.1172 234.301 88.2852 233.609 88.2852 232.859C88.2852 232.125 88.1172 231.441 87.7812 230.809C87.4453 230.176 86.9766 229.668 86.375 229.285C85.7734 228.895 85.1055 228.699 84.3711 228.699C83.6523 228.699 82.9922 228.891 82.3906 229.273C81.7891 229.648 81.3164 230.156 80.9727 230.797C80.6289 231.438 80.457 232.125 80.457 232.859C80.457 233.594 80.6289 234.281 80.9727 234.922C81.3164 235.562 81.793 236.07 82.4023 236.445C83.0117 236.82 83.6758 237.008 84.3945 237.008ZM97.168 234.055V236.844H99.8516V239H92.293V236.844H94.7656V228.852H92.293V226.684H96.6875V229.473C97.1797 228.371 97.7891 227.605 98.5156 227.176C99.25 226.738 100.297 226.52 101.656 226.52H102.207V228.969H101.68C100.367 228.969 99.3906 229.141 98.75 229.484C98.1094 229.828 97.6836 230.348 97.4727 231.043C97.2695 231.738 97.168 232.742 97.168 234.055ZM117.172 236.844V239H112.543V237.195C111.309 238.539 109.836 239.211 108.125 239.211C106.938 239.211 105.887 238.934 104.973 238.379C104.066 237.816 103.359 237.055 102.852 236.094C102.352 235.133 102.102 234.07 102.102 232.906C102.102 231.719 102.367 230.625 102.898 229.625C103.438 228.625 104.18 227.832 105.125 227.246C106.07 226.652 107.094 226.355 108.195 226.355C108.992 226.355 109.746 226.516 110.457 226.836C111.176 227.156 111.871 227.66 112.543 228.348V223.473H110.164V221.34H114.945V236.844H117.172ZM108.582 237.055C109.332 237.055 110.008 236.855 110.609 236.457C111.211 236.059 111.684 235.527 112.027 234.863C112.371 234.199 112.543 233.488 112.543 232.73C112.543 231.965 112.371 231.266 112.027 230.633C111.684 230 111.207 229.5 110.598 229.133C109.988 228.766 109.301 228.582 108.535 228.582C107.793 228.582 107.129 228.781 106.543 229.18C105.965 229.57 105.508 230.094 105.172 230.75C104.836 231.398 104.668 232.094 104.668 232.836C104.668 233.633 104.84 234.352 105.184 234.992C105.527 235.633 105.996 236.137 106.59 236.504C107.184 236.871 107.848 237.055 108.582 237.055ZM138.031 225.969C138.031 227.102 137.711 228.055 137.07 228.828C136.43 229.594 135.535 230.121 134.387 230.41L137.504 236.797H139.66V239H135.699L131.797 230.773H129.324V236.797H131.574V239H124.262V236.797H126.652V223.543H124.262V221.34H131.598C133.871 221.34 135.512 221.711 136.52 222.453C137.527 223.195 138.031 224.367 138.031 225.969ZM135.277 225.922C135.277 225.102 135.02 224.5 134.504 224.117C133.988 223.734 133.172 223.543 132.055 223.543H129.324V228.559H131.891C133.039 228.559 133.891 228.359 134.445 227.961C135 227.562 135.277 226.883 135.277 225.922ZM153.359 233.457H143.035C143.184 234.637 143.641 235.57 144.406 236.258C145.172 236.938 146.109 237.277 147.219 237.277C148.031 237.277 148.785 237.109 149.48 236.773C150.176 236.438 150.758 235.922 151.227 235.227L153.359 236.188C152.688 237.234 151.805 238.027 150.711 238.566C149.625 239.098 148.441 239.363 147.16 239.363C145.832 239.363 144.652 239.086 143.621 238.531C142.59 237.977 141.785 237.203 141.207 236.211C140.637 235.219 140.352 234.102 140.352 232.859C140.352 231.625 140.633 230.512 141.195 229.52C141.766 228.527 142.543 227.754 143.527 227.199C144.512 226.637 145.598 226.355 146.785 226.355C148.082 226.355 149.211 226.645 150.172 227.223C151.141 227.793 151.902 228.613 152.457 229.684C153.012 230.746 153.312 232.004 153.359 233.457ZM146.832 228.371C145.918 228.371 145.117 228.68 144.43 229.297C143.742 229.906 143.301 230.715 143.105 231.723H150.816C150.59 230.715 150.109 229.906 149.375 229.297C148.641 228.68 147.793 228.371 146.832 228.371ZM162.652 227.211V226.684H164.762V230.773H162.652V230.023C161.949 229.016 160.988 228.512 159.77 228.512C159.129 228.512 158.605 228.652 158.199 228.934C157.793 229.215 157.59 229.578 157.59 230.023C157.59 230.422 157.742 230.734 158.047 230.961C158.359 231.188 159.055 231.387 160.133 231.559L161.762 231.875C164.191 232.32 165.406 233.512 165.406 235.449C165.406 236.582 164.965 237.492 164.082 238.18C163.207 238.867 162.043 239.211 160.59 239.211C160.012 239.211 159.441 239.129 158.879 238.965C158.324 238.793 157.859 238.582 157.484 238.332V239H155.328V234.781H157.484V235.203C157.602 235.797 157.93 236.273 158.469 236.633C159.016 236.992 159.648 237.172 160.367 237.172C161.156 237.172 161.777 237.035 162.23 236.762C162.684 236.48 162.91 236.066 162.91 235.52C162.91 235.121 162.73 234.824 162.371 234.629C162.012 234.426 161.289 234.219 160.203 234.008L158.949 233.738C157.707 233.488 156.797 233.059 156.219 232.449C155.641 231.84 155.352 231.062 155.352 230.117C155.352 229.352 155.562 228.699 155.984 228.16C156.414 227.613 156.961 227.203 157.625 226.93C158.289 226.656 158.973 226.52 159.676 226.52C160.855 226.52 161.848 226.75 162.652 227.211ZM180.242 233.457H169.918C170.066 234.637 170.523 235.57 171.289 236.258C172.055 236.938 172.992 237.277 174.102 237.277C174.914 237.277 175.668 237.109 176.363 236.773C177.059 236.438 177.641 235.922 178.109 235.227L180.242 236.188C179.57 237.234 178.688 238.027 177.594 238.566C176.508 239.098 175.324 239.363 174.043 239.363C172.715 239.363 171.535 239.086 170.504 238.531C169.473 237.977 168.668 237.203 168.09 236.211C167.52 235.219 167.234 234.102 167.234 232.859C167.234 231.625 167.516 230.512 168.078 229.52C168.648 228.527 169.426 227.754 170.41 227.199C171.395 226.637 172.48 226.355 173.668 226.355C174.965 226.355 176.094 226.645 177.055 227.223C178.023 227.793 178.785 228.613 179.34 229.684C179.895 230.746 180.195 232.004 180.242 233.457ZM173.715 228.371C172.801 228.371 172 228.68 171.312 229.297C170.625 229.906 170.184 230.715 169.988 231.723H177.699C177.473 230.715 176.992 229.906 176.258 229.297C175.523 228.68 174.676 228.371 173.715 228.371ZM188.234 226.684V228.852H185.984V235.309C185.984 235.98 186.055 236.418 186.195 236.621C186.344 236.816 186.594 236.914 186.945 236.914C187.375 236.914 187.805 236.84 188.234 236.691V238.883C187.484 239.102 186.879 239.211 186.418 239.211C185.402 239.211 184.672 238.957 184.227 238.449C183.781 237.934 183.559 237.055 183.559 235.812V228.852H181.953V226.684H183.559V224.82L185.984 222.605V226.684H188.234ZM43.8359 249.441V248.234H45.9922V253.59H43.8359V252.371C42.9219 250.996 41.6719 250.309 40.0859 250.309C39.1172 250.309 38.375 250.504 37.8594 250.895C37.3438 251.285 37.0859 251.848 37.0859 252.582C37.0859 253.285 37.3281 253.82 37.8125 254.188C38.3047 254.555 39.0547 254.867 40.0625 255.125L42.1367 255.676C43.457 256.027 44.4688 256.492 45.1719 257.07C45.8828 257.648 46.3438 258.262 46.5547 258.91C46.7734 259.559 46.8828 260.281 46.8828 261.078C46.8828 262.68 46.3828 263.949 45.3828 264.887C44.3828 265.824 43.043 266.293 41.3633 266.293C39.7617 266.293 38.3047 265.707 36.9922 264.535V266H34.7891V259.566H36.9922V261.125C38.0469 263.062 39.4219 264.031 41.1172 264.031C42.1094 264.031 42.8789 263.777 43.4258 263.27C43.9727 262.754 44.2461 262.031 44.2461 261.102C44.2461 259.836 43.3555 258.957 41.5742 258.465L39.3711 257.844C37.7852 257.391 36.6133 256.777 35.8555 256.004C35.0977 255.23 34.7188 254.211 34.7188 252.945C34.7188 251.391 35.1758 250.188 36.0898 249.336C37.0117 248.477 38.2812 248.047 39.8984 248.047C41.3047 248.047 42.6172 248.512 43.8359 249.441ZM54.1367 264.102C55.2227 264.102 56.3984 263.574 57.6641 262.52V255.852H55.4844V253.684H60.0898V263.844H62.1992V266H57.6641V264.582C56.2422 265.668 54.8906 266.211 53.6094 266.211C52.4531 266.211 51.5977 265.867 51.043 265.18C50.4961 264.492 50.2227 263.352 50.2227 261.758V255.852H48.5V253.684H52.6484V262.262C52.6484 262.895 52.7617 263.359 52.9883 263.656C53.2227 263.953 53.6055 264.102 54.1367 264.102ZM73.1445 254.574V253.684H75.3008V258.348H73.1445C73.0508 257.449 72.6914 256.766 72.0664 256.297C71.4414 255.82 70.7188 255.582 69.8984 255.582C69.1953 255.582 68.5625 255.77 68 256.145C67.4453 256.52 67.0156 257.027 66.7109 257.668C66.4062 258.309 66.2539 259.008 66.2539 259.766C66.2539 261.055 66.5977 262.109 67.2852 262.93C67.9727 263.742 68.8789 264.148 70.0039 264.148C71.7461 264.148 72.9766 263.34 73.6953 261.723L75.7109 262.684C74.5781 265.137 72.6406 266.363 69.8984 266.363C68.6719 266.363 67.582 266.074 66.6289 265.496C65.6758 264.918 64.9375 264.125 64.4141 263.117C63.8984 262.109 63.6406 260.992 63.6406 259.766C63.6406 258.562 63.9023 257.469 64.4258 256.484C64.957 255.5 65.6836 254.734 66.6055 254.188C67.5273 253.633 68.5547 253.355 69.6875 253.355C71.0312 253.355 72.1836 253.762 73.1445 254.574ZM86.7148 254.574V253.684H88.8711V258.348H86.7148C86.6211 257.449 86.2617 256.766 85.6367 256.297C85.0117 255.82 84.2891 255.582 83.4688 255.582C82.7656 255.582 82.1328 255.77 81.5703 256.145C81.0156 256.52 80.5859 257.027 80.2812 257.668C79.9766 258.309 79.8242 259.008 79.8242 259.766C79.8242 261.055 80.168 262.109 80.8555 262.93C81.543 263.742 82.4492 264.148 83.5742 264.148C85.3164 264.148 86.5469 263.34 87.2656 261.723L89.2812 262.684C88.1484 265.137 86.2109 266.363 83.4688 266.363C82.2422 266.363 81.1523 266.074 80.1992 265.496C79.2461 264.918 78.5078 264.125 77.9844 263.117C77.4688 262.109 77.2109 260.992 77.2109 259.766C77.2109 258.562 77.4727 257.469 77.9961 256.484C78.5273 255.5 79.2539 254.734 80.1758 254.188C81.0977 253.633 82.125 253.355 83.2578 253.355C84.6016 253.355 85.7539 253.762 86.7148 254.574ZM103.789 260.457H93.4648C93.6133 261.637 94.0703 262.57 94.8359 263.258C95.6016 263.938 96.5391 264.277 97.6484 264.277C98.4609 264.277 99.2148 264.109 99.9102 263.773C100.605 263.438 101.188 262.922 101.656 262.227L103.789 263.188C103.117 264.234 102.234 265.027 101.141 265.566C100.055 266.098 98.8711 266.363 97.5898 266.363C96.2617 266.363 95.082 266.086 94.0508 265.531C93.0195 264.977 92.2148 264.203 91.6367 263.211C91.0664 262.219 90.7812 261.102 90.7812 259.859C90.7812 258.625 91.0625 257.512 91.625 256.52C92.1953 255.527 92.9727 254.754 93.957 254.199C94.9414 253.637 96.0273 253.355 97.2148 253.355C98.5117 253.355 99.6406 253.645 100.602 254.223C101.57 254.793 102.332 255.613 102.887 256.684C103.441 257.746 103.742 259.004 103.789 260.457ZM97.2617 255.371C96.3477 255.371 95.5469 255.68 94.8594 256.297C94.1719 256.906 93.7305 257.715 93.5352 258.723H101.246C101.02 257.715 100.539 256.906 99.8047 256.297C99.0703 255.68 98.2227 255.371 97.2617 255.371ZM113.082 254.211V253.684H115.191V257.773H113.082V257.023C112.379 256.016 111.418 255.512 110.199 255.512C109.559 255.512 109.035 255.652 108.629 255.934C108.223 256.215 108.02 256.578 108.02 257.023C108.02 257.422 108.172 257.734 108.477 257.961C108.789 258.188 109.484 258.387 110.562 258.559L112.191 258.875C114.621 259.32 115.836 260.512 115.836 262.449C115.836 263.582 115.395 264.492 114.512 265.18C113.637 265.867 112.473 266.211 111.02 266.211C110.441 266.211 109.871 266.129 109.309 265.965C108.754 265.793 108.289 265.582 107.914 265.332V266H105.758V261.781H107.914V262.203C108.031 262.797 108.359 263.273 108.898 263.633C109.445 263.992 110.078 264.172 110.797 264.172C111.586 264.172 112.207 264.035 112.66 263.762C113.113 263.48 113.34 263.066 113.34 262.52C113.34 262.121 113.16 261.824 112.801 261.629C112.441 261.426 111.719 261.219 110.633 261.008L109.379 260.738C108.137 260.488 107.227 260.059 106.648 259.449C106.07 258.84 105.781 258.062 105.781 257.117C105.781 256.352 105.992 255.699 106.414 255.16C106.844 254.613 107.391 254.203 108.055 253.93C108.719 253.656 109.402 253.52 110.105 253.52C111.285 253.52 112.277 253.75 113.082 254.211ZM125.129 254.211V253.684H127.238V257.773H125.129V257.023C124.426 256.016 123.465 255.512 122.246 255.512C121.605 255.512 121.082 255.652 120.676 255.934C120.27 256.215 120.066 256.578 120.066 257.023C120.066 257.422 120.219 257.734 120.523 257.961C120.836 258.188 121.531 258.387 122.609 258.559L124.238 258.875C126.668 259.32 127.883 260.512 127.883 262.449C127.883 263.582 127.441 264.492 126.559 265.18C125.684 265.867 124.52 266.211 123.066 266.211C122.488 266.211 121.918 266.129 121.355 265.965C120.801 265.793 120.336 265.582 119.961 265.332V266H117.805V261.781H119.961V262.203C120.078 262.797 120.406 263.273 120.945 263.633C121.492 263.992 122.125 264.172 122.844 264.172C123.633 264.172 124.254 264.035 124.707 263.762C125.16 263.48 125.387 263.066 125.387 262.52C125.387 262.121 125.207 261.824 124.848 261.629C124.488 261.426 123.766 261.219 122.68 261.008L121.426 260.738C120.184 260.488 119.273 260.059 118.695 259.449C118.117 258.84 117.828 258.062 117.828 257.117C117.828 256.352 118.039 255.699 118.461 255.16C118.891 254.613 119.438 254.203 120.102 253.93C120.766 253.656 121.449 253.52 122.152 253.52C123.332 253.52 124.324 253.75 125.129 254.211ZM137.75 250.812L135.594 251.141C135.523 250.344 135.219 249.945 134.68 249.945C134.297 249.945 134.039 250.082 133.906 250.355C133.781 250.629 133.719 251.117 133.719 251.82V253.684H135.828V255.852H133.719V263.844H136.039V266H129.488V263.844H131.293V255.852H129.488V253.684H131.293V251.773C131.293 250.648 131.566 249.734 132.113 249.031C132.668 248.328 133.484 247.977 134.562 247.977C135.453 247.977 136.168 248.215 136.707 248.691C137.254 249.16 137.602 249.867 137.75 250.812ZM142.824 264.102C143.91 264.102 145.086 263.574 146.352 262.52V255.852H144.172V253.684H148.777V263.844H150.887V266H146.352V264.582C144.93 265.668 143.578 266.211 142.297 266.211C141.141 266.211 140.285 265.867 139.73 265.18C139.184 264.492 138.91 263.352 138.91 261.758V255.852H137.188V253.684H141.336V262.262C141.336 262.895 141.449 263.359 141.676 263.656C141.91 263.953 142.293 264.102 142.824 264.102ZM158.352 263.844V266H151.871V263.844H154.051V250.473H151.871V248.34H156.477V263.844H158.352Z" fill="white"/>
<defs>
<clipPath id="clip0_76_828">
<rect width="161.2" height="161.2" fill="white" transform="translate(16 16)"/>
</clipPath>
</defs>
</svg>
